<mxfile host="app.diagrams.net" agent="Mozilla/5.0 (Windows NT 10.0; Win64; x64) AppleWebKit/537.36 (KHTML, like Gecko) Chrome/129.0.0.0 Safari/537.36" version="24.8.1">
  <diagram id="C5RBs43oDa-KdzZeNtuy" name="Page-1">
    <mxGraphModel dx="1290" dy="1726" grid="1" gridSize="10" guides="1" tooltips="1" connect="1" arrows="1" fold="1" page="1" pageScale="1" pageWidth="827" pageHeight="1169" math="0" shadow="0">
      <root>
        <mxCell id="WIyWlLk6GJQsqaUBKTNV-0" />
        <mxCell id="WIyWlLk6GJQsqaUBKTNV-1" parent="WIyWlLk6GJQsqaUBKTNV-0" />
        <mxCell id="dV3mGlEZXgCJ5tIqw1w2-0" value="" style="endArrow=classic;html=1;rounded=0;fontSize=12;startSize=8;endSize=8;curved=1;exitX=-0.001;exitY=0.42;exitDx=0;exitDy=0;entryX=1;entryY=0.5;entryDx=0;entryDy=0;exitPerimeter=0;" edge="1" parent="WIyWlLk6GJQsqaUBKTNV-1" source="dV3mGlEZXgCJ5tIqw1w2-10">
          <mxGeometry relative="1" as="geometry">
            <mxPoint x="540" y="-81" as="sourcePoint" />
            <mxPoint x="420" y="-80" as="targetPoint" />
          </mxGeometry>
        </mxCell>
        <mxCell id="dV3mGlEZXgCJ5tIqw1w2-1" value="" style="endArrow=classic;html=1;rounded=0;fontSize=12;startSize=8;endSize=8;curved=1;entryX=0.5;entryY=0;entryDx=0;entryDy=0;exitX=0.5;exitY=1;exitDx=0;exitDy=0;" edge="1" parent="WIyWlLk6GJQsqaUBKTNV-1" source="dV3mGlEZXgCJ5tIqw1w2-4" target="dV3mGlEZXgCJ5tIqw1w2-3">
          <mxGeometry relative="1" as="geometry">
            <mxPoint x="620" y="-300" as="sourcePoint" />
            <mxPoint x="620" y="-150" as="targetPoint" />
          </mxGeometry>
        </mxCell>
        <mxCell id="dV3mGlEZXgCJ5tIqw1w2-2" value="-dispositivos" style="edgeLabel;resizable=0;html=1;fontSize=12;;align=center;verticalAlign=middle;" connectable="0" vertex="1" parent="dV3mGlEZXgCJ5tIqw1w2-1">
          <mxGeometry relative="1" as="geometry" />
        </mxCell>
        <mxCell id="dV3mGlEZXgCJ5tIqw1w2-3" value="&lt;p style=&quot;margin:0px;margin-top:4px;text-align:center;&quot;&gt;&lt;b&gt;Dispositivo&lt;/b&gt;&lt;/p&gt;&lt;hr size=&quot;1&quot; style=&quot;border-style:solid;&quot;&gt;&lt;p style=&quot;margin:0px;margin-left:4px;&quot;&gt;- ID: String&lt;/p&gt;&lt;p style=&quot;margin:0px;margin-left:4px;&quot;&gt;- precio: double&lt;/p&gt;&lt;hr size=&quot;1&quot; style=&quot;border-style:solid;&quot;&gt;&lt;p style=&quot;margin:0px;margin-left:4px;&quot;&gt;+ Dispositivo(String , double, TipoDispositivo)&lt;/p&gt;&lt;p style=&quot;margin:0px;margin-left:4px;&quot;&gt;+ toString(): String&lt;/p&gt;" style="verticalAlign=top;align=left;overflow=fill;html=1;whiteSpace=wrap;" vertex="1" parent="WIyWlLk6GJQsqaUBKTNV-1">
          <mxGeometry x="650" y="-140" width="250" height="140" as="geometry" />
        </mxCell>
        <mxCell id="dV3mGlEZXgCJ5tIqw1w2-4" value="&lt;p style=&quot;margin:0px;margin-top:4px;text-align:center;&quot;&gt;&lt;b&gt;Sucursal&lt;/b&gt;&lt;/p&gt;&lt;hr size=&quot;1&quot; style=&quot;border-style:solid;&quot;&gt;&lt;p style=&quot;margin:0px;margin-left:4px;&quot;&gt;- nombre: String&lt;/p&gt;&lt;p style=&quot;margin:0px;margin-left:4px;&quot;&gt;&lt;br&gt;&lt;/p&gt;&lt;hr size=&quot;1&quot; style=&quot;border-style:solid;&quot;&gt;&lt;p style=&quot;margin:0px;margin-left:4px;&quot;&gt;+ Sucursal(String)&lt;/p&gt;&lt;p style=&quot;margin:0px;margin-left:4px;&quot;&gt;+ listarDispositivos(): void&lt;/p&gt;&lt;p style=&quot;margin:0px;margin-left:4px;&quot;&gt;+agregarDispositivo(Dispositivo): void&lt;/p&gt;&lt;p style=&quot;margin:0px;margin-left:4px;&quot;&gt;+ dispositivosPorTipo(TipoDispositivo): ArrayList&amp;lt;Dispositivo&amp;gt;&lt;/p&gt;" style="verticalAlign=top;align=left;overflow=fill;html=1;whiteSpace=wrap;" vertex="1" parent="WIyWlLk6GJQsqaUBKTNV-1">
          <mxGeometry x="650" y="-450" width="340" height="140" as="geometry" />
        </mxCell>
        <mxCell id="dV3mGlEZXgCJ5tIqw1w2-5" value="&lt;p style=&quot;margin:0px;margin-top:4px;text-align:center;&quot;&gt;&lt;b&gt;Empresa&lt;/b&gt;&lt;/p&gt;&lt;hr size=&quot;1&quot; style=&quot;border-style:solid;&quot;&gt;&lt;p style=&quot;margin:0px;margin-left:4px;&quot;&gt;&lt;br&gt;&lt;/p&gt;&lt;p style=&quot;margin:0px;margin-left:4px;&quot;&gt;&lt;br&gt;&lt;/p&gt;&lt;hr size=&quot;1&quot; style=&quot;border-style:solid;&quot;&gt;&lt;p style=&quot;margin:0px;margin-left:4px;&quot;&gt;+ Empresa()&lt;/p&gt;&lt;p style=&quot;margin:0px;margin-left:4px;&quot;&gt;+ agregarSucursal(Sucursal):void&lt;/p&gt;&lt;p style=&quot;margin:0px;margin-left:4px;&quot;&gt;+ listarDispositivos(): void&lt;/p&gt;&lt;p style=&quot;margin:0px;margin-left:4px;&quot;&gt;+ dispositivosPorTipo(TipoDispositivo):ArrayList&amp;lt;Dispositivo&amp;gt;&lt;/p&gt;" style="verticalAlign=top;align=left;overflow=fill;html=1;whiteSpace=wrap;" vertex="1" parent="WIyWlLk6GJQsqaUBKTNV-1">
          <mxGeometry x="200" y="-450" width="330" height="140" as="geometry" />
        </mxCell>
        <mxCell id="dV3mGlEZXgCJ5tIqw1w2-6" value="" style="endArrow=classic;html=1;rounded=0;fontSize=12;startSize=8;endSize=8;curved=1;entryX=0;entryY=0.5;entryDx=0;entryDy=0;exitX=1;exitY=0.5;exitDx=0;exitDy=0;" edge="1" parent="WIyWlLk6GJQsqaUBKTNV-1" source="dV3mGlEZXgCJ5tIqw1w2-5" target="dV3mGlEZXgCJ5tIqw1w2-4">
          <mxGeometry relative="1" as="geometry">
            <mxPoint x="645" y="-300" as="sourcePoint" />
            <mxPoint x="645" y="-130" as="targetPoint" />
          </mxGeometry>
        </mxCell>
        <mxCell id="dV3mGlEZXgCJ5tIqw1w2-7" value="-sucursales" style="edgeLabel;resizable=0;html=1;fontSize=12;;align=center;verticalAlign=middle;" connectable="0" vertex="1" parent="dV3mGlEZXgCJ5tIqw1w2-6">
          <mxGeometry relative="1" as="geometry" />
        </mxCell>
        <mxCell id="dV3mGlEZXgCJ5tIqw1w2-8" value="" style="endArrow=classic;html=1;rounded=0;fontSize=12;startSize=8;endSize=8;curved=1;exitX=-0.001;exitY=0.42;exitDx=0;exitDy=0;entryX=1;entryY=0.5;entryDx=0;entryDy=0;exitPerimeter=0;" edge="1" parent="WIyWlLk6GJQsqaUBKTNV-1" source="dV3mGlEZXgCJ5tIqw1w2-3" target="dV3mGlEZXgCJ5tIqw1w2-10">
          <mxGeometry relative="1" as="geometry">
            <mxPoint x="650" y="-81" as="sourcePoint" />
            <mxPoint x="420" y="-80" as="targetPoint" />
          </mxGeometry>
        </mxCell>
        <mxCell id="dV3mGlEZXgCJ5tIqw1w2-9" value="-tipo" style="edgeLabel;resizable=0;html=1;fontSize=12;;align=center;verticalAlign=middle;" connectable="0" vertex="1" parent="dV3mGlEZXgCJ5tIqw1w2-8">
          <mxGeometry relative="1" as="geometry" />
        </mxCell>
        <mxCell id="dV3mGlEZXgCJ5tIqw1w2-10" value="&lt;p style=&quot;margin:0px;margin-top:4px;text-align:center;&quot;&gt;&lt;i&gt;&amp;lt;&amp;lt;enum&amp;gt;&amp;gt;&lt;/i&gt;&lt;br&gt;&lt;b&gt;TipoDispositivo&lt;/b&gt;&lt;/p&gt;&lt;hr size=&quot;1&quot; style=&quot;border-style:solid;&quot;&gt;&lt;p style=&quot;margin:0px;margin-left:4px;&quot;&gt;+ TELEFONO&lt;br&gt;+ COMPUTADORA&lt;/p&gt;&lt;p style=&quot;margin:0px;margin-left:4px;&quot;&gt;+ TABLET&lt;/p&gt;&lt;hr size=&quot;1&quot; style=&quot;border-style:solid;&quot;&gt;&lt;p style=&quot;margin:0px;margin-left:4px;&quot;&gt;&lt;br&gt;&lt;/p&gt;" style="verticalAlign=top;align=left;overflow=fill;html=1;whiteSpace=wrap;" vertex="1" parent="WIyWlLk6GJQsqaUBKTNV-1">
          <mxGeometry x="330" y="-150" width="190" height="140" as="geometry" />
        </mxCell>
        <mxCell id="dV3mGlEZXgCJ5tIqw1w2-11" value="return" style="html=1;verticalAlign=bottom;endArrow=open;dashed=1;endSize=8;curved=0;rounded=0;fontSize=12;exitX=0.442;exitY=1;exitDx=0;exitDy=0;exitPerimeter=0;entryX=0.5;entryY=0;entryDx=0;entryDy=0;" edge="1" parent="WIyWlLk6GJQsqaUBKTNV-1" source="dV3mGlEZXgCJ5tIqw1w2-5" target="dV3mGlEZXgCJ5tIqw1w2-10">
          <mxGeometry relative="1" as="geometry">
            <mxPoint x="520" y="-250" as="sourcePoint" />
            <mxPoint x="440" y="-250" as="targetPoint" />
          </mxGeometry>
        </mxCell>
        <mxCell id="dV3mGlEZXgCJ5tIqw1w2-12" value="return" style="html=1;verticalAlign=bottom;endArrow=open;dashed=1;endSize=8;curved=0;rounded=0;fontSize=12;exitX=0.25;exitY=1;exitDx=0;exitDy=0;entryX=0.75;entryY=0;entryDx=0;entryDy=0;" edge="1" parent="WIyWlLk6GJQsqaUBKTNV-1" source="dV3mGlEZXgCJ5tIqw1w2-4" target="dV3mGlEZXgCJ5tIqw1w2-10">
          <mxGeometry relative="1" as="geometry">
            <mxPoint x="520" y="-250" as="sourcePoint" />
            <mxPoint x="440" y="-250" as="targetPoint" />
          </mxGeometry>
        </mxCell>
      </root>
    </mxGraphModel>
  </diagram>
</mxfile>
